<svg id="Layer_1" data-name="Layer 1" xmlns="http://www.w3.org/2000/svg" xmlns:xlink="http://www.w3.org/1999/xlink" viewBox="0 0 2500 2500"><defs><style>.cls-1{fill:url(#linear-gradient);}.cls-2{fill:#3470d1;}.cls-3{fill:#6792e8;}.cls-4{fill:#fff;}.cls-5,.cls-7{fill:none;stroke-linecap:round;}.cls-5{stroke:#1773f1;stroke-miterlimit:10;stroke-width:29.25px;opacity:0.2;}.cls-6{fill:#e89997;}.cls-7{stroke:#000;stroke-linejoin:round;stroke-width:9.36px;}.cls-8{fill:url(#linear-gradient-2);}.cls-9{fill:#05256b;}.cls-10{fill:url(#linear-gradient-3);}.cls-11{fill:#ffa7a2;}.cls-12{fill:#2875ca;}.cls-13{fill:#033c6c;}.cls-14{fill:#7abdff;}.cls-15{fill:#f73319;}.cls-16{fill:#003987;}.cls-17{fill:url(#linear-gradient-4);}.cls-18{fill:#2f75e3;}.cls-19{fill:url(#linear-gradient-5);}.cls-20{fill:url(#linear-gradient-6);}.cls-21{fill:#1c388e;}.cls-22{fill:url(#linear-gradient-7);}.cls-23{fill:url(#linear-gradient-8);}.cls-24{fill:#3f4cff;}.cls-25{fill:url(#linear-gradient-9);}.cls-26{fill:#2586ce;}.cls-27{fill:url(#linear-gradient-10);}.cls-28{fill:url(#linear-gradient-11);}.cls-29{fill:url(#linear-gradient-12);}.cls-30{fill:url(#linear-gradient-13);}.cls-31{fill:url(#linear-gradient-14);}.cls-32{fill:url(#linear-gradient-15);}.cls-33{fill:url(#linear-gradient-16);}.cls-34{fill:url(#linear-gradient-17);}.cls-35{fill:url(#linear-gradient-18);}.cls-36{fill:url(#linear-gradient-19);}</style><linearGradient id="linear-gradient" x1="309.9" y1="1266.17" x2="3327.93" y2="1266.17" gradientUnits="userSpaceOnUse"><stop offset="0" stop-color="#4d72ff"/><stop offset="0.25" stop-color="#4192ff"/><stop offset="0.57" stop-color="#35b4ff"/><stop offset="0.83" stop-color="#2dc9ff"/><stop offset="1" stop-color="#2ad1ff"/></linearGradient><linearGradient id="linear-gradient-2" x1="1345.98" y1="1009.74" x2="1385.44" y2="1009.74" gradientUnits="userSpaceOnUse"><stop offset="0" stop-color="#009ae9"/><stop offset="1" stop-color="#0065e9"/></linearGradient><linearGradient id="linear-gradient-3" x1="-4014.36" y1="3496.48" x2="-3840.16" y2="3496.48" gradientTransform="matrix(-0.64, 0.77, 0.77, 0.64, -3756.25, 1752.79)" xlink:href="#linear-gradient-2"/><linearGradient id="linear-gradient-4" x1="1033.17" y1="901.12" x2="1094.43" y2="901.12" xlink:href="#linear-gradient-2"/><linearGradient id="linear-gradient-5" x1="972.93" y1="941.78" x2="863.07" y2="1144.6" xlink:href="#linear-gradient-2"/><linearGradient id="linear-gradient-6" x1="982.76" y1="1097.08" x2="975.61" y2="885.16" gradientUnits="userSpaceOnUse"><stop offset="0" stop-color="#1593ff"/><stop offset="1" stop-color="#3f4cff"/></linearGradient><linearGradient id="linear-gradient-7" x1="1555.22" y1="891.08" x2="1562.19" y2="1201.77" gradientUnits="userSpaceOnUse"><stop offset="0" stop-color="#159fa4"/><stop offset="1" stop-color="#6b4cff"/></linearGradient><linearGradient id="linear-gradient-8" x1="1384.33" y1="1764.33" x2="1594.35" y2="1764.33" gradientTransform="translate(-478.78 -319.49) rotate(-16.67)" xlink:href="#linear-gradient"/><linearGradient id="linear-gradient-9" x1="1426.78" y1="1293.05" x2="1547.94" y2="1450.87" gradientTransform="translate(-54.79 -898.09) rotate(4.18)" gradientUnits="userSpaceOnUse"><stop offset="0" stop-color="#6ad3ff"/><stop offset="0.1" stop-color="#90deff"/><stop offset="0.24" stop-color="#bfecff"/><stop offset="0.36" stop-color="#e2f6ff"/><stop offset="0.46" stop-color="#f7fdff"/><stop offset="0.52" stop-color="#fff"/></linearGradient><linearGradient id="linear-gradient-10" x1="1370.89" y1="1308.44" x2="1447.14" y2="1308.44" gradientTransform="matrix(0.96, -0.29, 0.25, 0.82, -363.13, -170.71)" gradientUnits="userSpaceOnUse"><stop offset="0" stop-color="#2a9aff"/><stop offset="0.37" stop-color="#2ab4ff"/><stop offset="0.75" stop-color="#2ac9ff"/><stop offset="1" stop-color="#2ad1ff"/></linearGradient><linearGradient id="linear-gradient-11" x1="1286.83" y1="506.02" x2="1399.36" y2="506.02" gradientTransform="translate(36.67 43.8) rotate(1.54)" xlink:href="#linear-gradient-10"/><linearGradient id="linear-gradient-12" x1="1664.83" y1="1323.34" x2="1743.11" y2="1323.34" gradientTransform="matrix(0.9, 0.08, -0.12, 1.4, -61.94, -1437.68)" xlink:href="#linear-gradient-10"/><linearGradient id="linear-gradient-13" x1="1666.86" y1="1109.73" x2="1745.14" y2="1109.73" gradientTransform="matrix(0.9, 0.08, -0.12, 1.4, -109.42, -1219.72)" xlink:href="#linear-gradient-6"/><linearGradient id="linear-gradient-14" x1="1263.3" y1="1571.56" x2="1375.58" y2="1571.56" gradientTransform="matrix(1.01, -0.32, 0.3, 0.95, -404.72, -365.33)" gradientUnits="userSpaceOnUse"><stop offset="0" stop-color="#1593ff"/><stop offset="1" stop-color="#3f72ff"/></linearGradient><linearGradient id="linear-gradient-15" x1="1411.15" y1="1004.97" x2="1601.34" y2="1004.97" xlink:href="#linear-gradient-2"/><linearGradient id="linear-gradient-16" x1="1632.68" y1="1244.18" x2="1403.47" y2="1339.58" gradientTransform="matrix(1, 0, 0, 1, 0, 0)" xlink:href="#linear-gradient-10"/><linearGradient id="linear-gradient-17" x1="1872.24" y1="543.21" x2="2412.19" y2="543.21" xlink:href="#linear-gradient"/><linearGradient id="linear-gradient-18" x1="451.4" y1="819.69" x2="717.96" y2="819.69" gradientTransform="translate(1517.64 830.9) rotate(123.91)" xlink:href="#linear-gradient"/><linearGradient id="linear-gradient-19" x1="822.95" y1="-980.37" x2="1176.04" y2="-980.37" gradientTransform="translate(1517.64 830.9) rotate(123.91)" xlink:href="#linear-gradient"/></defs><title>people</title><circle class="cls-1" cx="1284.75" cy="1266.17" r="1081.68"/><path class="cls-2" d="M1070.69,2055.8,559,1721.52C511.54,1690.55,524,1624,524,1624l821-512.47a77.11,77.11,0,0,1,79.8-.4l547.47,319.33c9.35,27.21,15.35,87-32.62,118L1154.73,2056A77.12,77.12,0,0,1,1070.69,2055.8Z"/><path class="cls-3" d="M1070.69,2030.45,559,1696.16c-47.41-31-46.37-100.77,1.93-130.32L1345,1086.15a77.11,77.11,0,0,1,79.8-.41l512.55,306.42c49,29.32,50.27,99.91,2.3,130.93l-784.92,507.55A77.12,77.12,0,0,1,1070.69,2030.45Z"/><path class="cls-4" d="M1132.53,1964.15,620.24,1620c-24.55-16-24-52.17,1-67.48l703-425a53.56,53.56,0,0,1,55.42-.29l525.18,325c25.34,15.15,26,51.64,1.19,67.67l-693.37,444.44A73.52,73.52,0,0,1,1132.53,1964.15Z"/><ellipse class="cls-2" cx="817.28" cy="1805.59" rx="41.78" ry="25.84"/><path class="cls-2" d="M1700.2,1304.44l-97.82-60.22c-4.37-2.69-2.69-8.11,3.75-12.12h0c6.43-4,15.2-5.06,19.57-2.36l97.82,60.22c4.37,2.69,2.69,8.11-3.75,12.12h0C1713.34,1306.08,1704.57,1307.14,1700.2,1304.44Z"/><line class="cls-5" x1="1322.68" y1="1195.66" x2="1712.72" y2="1452.11"/><path class="cls-6" d="M1243.73,1401.05l-2.53,15.65s-18.69,4.07-19.18,4.07-16.25-5.85-16.25-5.85l-5-14.79v-7.48c0-2.27,5-27.63,5-27.63l19.34-6.82,9.1,1,2.11,4.23Z"/><line class="cls-5" x1="1217.8" y1="1249.11" x2="1607.84" y2="1505.56"/><line class="cls-5" x1="1111.2" y1="1324.28" x2="1501.24" y2="1580.74"/><line class="cls-5" x1="998.3" y1="1395.58" x2="1388.35" y2="1652.03"/><line class="cls-5" x1="877.57" y1="1461.32" x2="1056.22" y2="1578.78"/><polyline class="cls-7" points="1573.19 1510.04 1546.14 1542.81 1636.66 1522.52"/><path class="cls-8" d="M1346,1015.89s17.51,7.93,29.7,2.81,9.51-15.12,9.51-15.12l-17.8-4.53Z"/><path class="cls-9" d="M1233.44,1887.64c-.91-.66,3.31-1.45,2.74-1.4-1.41.14-5.48,1.89-6.76,4.39s-7.07,47.6,33.88,20,34-37,25.84-40.59-28.37,8.17-28.37,8.17Z"/><path class="cls-10" d="M1521.85,922.47s-95.6,62.13-167.24,64.26l7.81,29.69c6.93,1.92,89.65-9.16,175.7-69.1Z"/><path class="cls-11" d="M1232.33,1891.4l.33-11.1,24.59-.83s4.58,19.57-12.46,20.24C1232.33,1900.2,1232.33,1891.4,1232.33,1891.4Z"/><path class="cls-9" d="M1176.74,1852.59c-.77-.56,2.79-1.22,2.31-1.18-1.19.12-4.62,1.59-5.7,3.7s-5.95,40.08,28.54,16.88,28.64-31.2,21.76-34.18-23.89,6.88-23.89,6.88Z"/><path class="cls-11" d="M1175.81,1855.75l.27-9.34,20.71-.7s3.86,16.48-10.49,17C1175.81,1863.17,1175.81,1855.75,1175.81,1855.75Z"/><path class="cls-11" d="M1285.2,1566.62c9.58-1.41,14.78,5.75,16.18,15.32s-1.51,17.93-11.08,19.34-16.63-5-18-14.55S1275.63,1568,1285.2,1566.62Z"/><path class="cls-12" d="M1249.55,1403.45s33.31-8.94,50.86,168.53h-26.65l-21.18-126.67-1.95-41.75"/><path class="cls-11" d="M1267.2,1524.26c0-10.08,8.17-14.35,18.25-14.35s18.24,4.27,18.24,14.35-7.64,16.38-17.72,16.38S1267.2,1534.34,1267.2,1524.26Z"/><rect class="cls-13" x="1175.5" y="1586.93" width="30.39" height="260.5" rx="3.56" ry="3.56" transform="translate(76.61 -50.67) rotate(2.52)"/><rect class="cls-13" x="1230.39" y="1581.5" width="30.39" height="299.04" rx="2.27" ry="2.27"/><path class="cls-14" d="M1267.2,1576.7a13.89,13.89,0,0,1-13.89,13.9H1186a13.89,13.89,0,0,1-13.89-13.9V1417.27a13.89,13.89,0,0,1,13.89-13.89h64.61l.1,1.12"/><path class="cls-12" d="M1132.11,1453s-38.08,96,146.75,87.09l-2.39-29.42s-113.85,6.58-111.67-46.59"/><path class="cls-15" d="M1115.08,1496.75c-.3,19.91,36.89,7.52,66.53,3.43a22.64,22.64,0,0,0,18.85-17.32A347.3,347.3,0,0,0,1209,1389C1205.12,1304.57,1115.57,1464.32,1115.08,1496.75Z"/><path class="cls-15" d="M1189.84,1359.82s-30.55-97.51,51.36-92.31,46.61,99.59-8.45,105.31C1184.26,1377.86,1189.84,1359.82,1189.84,1359.82Z"/><path class="cls-16" d="M1143,1357.75l14-23.86a7.56,7.56,0,0,1,12.6-.68l55.82,75.47a7.56,7.56,0,0,0,11.94.28l19.5-23.93a7.57,7.57,0,0,0-5.6-12.34l-102-3.56A7.56,7.56,0,0,1,1143,1357.75Z"/><path class="cls-17" d="M1033.17,930.45s30,27.3,28.91,6.34S1033.17,850,1033.17,850v-9.23l7.81-5.37,15.11-10.72s100,184.46-22.92,148.22"/><path class="cls-9" d="M932,1424a14.24,14.24,0,0,1,5.81-5.65l6.4-3.36a1.79,1.79,0,0,1,2.52,0l42,34.13c7.28,5.92,9.28,15.64,4.43,21.6h0c-4.85,6-14.77,6-22.06.09l-35.72-28.89A13.92,13.92,0,0,1,932,1424Z"/><path class="cls-9" d="M997.46,1401.57a13.55,13.55,0,0,1,3.15-7l4.48-5.22a1.71,1.71,0,0,1,2.22-.89l49.09,15.42c8.52,2.67,13.69,10.57,11.5,17.54h0c-2.19,7-11,10.49-19.46,7.81l-41.71-13c-.47-.14-.93-.31-1.37-.49a13.35,13.35,0,0,1-7.9-14.15Z"/><circle class="cls-11" cx="884.31" cy="1171.3" r="21.62"/><rect class="cls-18" x="934.04" y="1406.1" width="22.43" height="30.06" rx="9.76" ry="9.76"/><path class="cls-18" d="M1013.68,1406.37h-3.18a10.67,10.67,0,0,1-10.64-10.63v-16.25c0-5.85,4.79-5.9,10.64-5.9h3.18c5.85,0,9.74-2.23,9.74,3.62l.9,18.53A10.67,10.67,0,0,1,1013.68,1406.37Z"/><path class="cls-19" d="M948,914.2s-77.68,87.43-80.6,241.5h35.1S911.6,1028.1,961,970.43,948,914.2,948,914.2Z"/><path class="cls-13" d="M1022.12,1111.82h0c0-18.06,10.58-49.24-7.47-49.24l-55.1,6.33c-18,0-20.64,24.85-20.64,42.91h0a31.09,31.09,0,0,0,.37,4.76,6.38,6.38,0,0,1-.77,3.78,2.07,2.07,0,0,0-.22.86l-9.59,285.45a9.16,9.16,0,0,0,8.83,9.44l16.33.55a9.17,9.17,0,0,0,9.44-8.83l8.62-256.46a7,7,0,0,1,7-6.72h0a7,7,0,0,1,7,6.74l6.82,223a9,9,0,0,0,9.26,8.71l16.63-.51a9,9,0,0,0,8.71-9.26S1022.12,1116.68,1022.12,1111.82Z"/><path class="cls-20" d="M995.38,1128.82C997.27,1112,1009,994.18,974,953.12a4.79,4.79,0,0,1-1.13-3.85c.91-5.48,2.51-20.16-4.54-27.6-7.4-7.81.62-7.65,3.32-7.4a5.05,5.05,0,0,0,1.64-.15c5.77-1.58,40-8.67,32.63,48.15a4.17,4.17,0,0,0,0,.71l4.15,148.87a4.67,4.67,0,0,0,7.19,3.81l13.79-8.8a4.67,4.67,0,0,0,2.16-3.94V929.17a4.6,4.6,0,0,0-1.08-3c-6.61-7.94-42.75-47.3-83.88-13.37a4.64,4.64,0,0,0-1.65,3.87c.79,12,3.22,67.4-16.26,107.87-9.49,19.71-1.85,86.41-.27,99.26a4.63,4.63,0,0,0,2.16,3.38c7.77,4.83,37.89,21.46,61.34,4.85A4.54,4.54,0,0,0,995.38,1128.82Z"/><path class="cls-6" d="M983,923.68c-8.28,0-15.11-4-14.54-12l2.46-37L997,882.48l.54,34.26C997.58,924.43,983,923.68,983,923.68Z"/><ellipse class="cls-11" cx="995.15" cy="851.22" rx="35.59" ry="39.25"/><path class="cls-21" d="M1057.84,837.07a12.39,12.39,0,0,0,.41-18.28c-17.83-17.07-65.67-54.85-103.08-11.21-4.51,5.27-7.81,40.63,39,23.73,11.34-4.09,19,25.72,40.47,18.2C1046.12,845.49,1053.32,841,1057.84,837.07Z"/><path class="cls-4" d="M1009,1074,1005.88,963a4.17,4.17,0,0,1,0-.71c2.73-20.94-.21-33.19-5.29-40.24v-10.4a2.7,2.7,0,0,0-2.63-2.7l-29.85-.78a1.89,1.89,0,0,0-1.91,2l.25,4.66c-1.66.84-2.09,2.73,1.84,6.87,7,7.44,5.45,22.12,4.54,27.61a4.78,4.78,0,0,0,1.13,3.84c21.58,25.29,25.4,79.69,24.71,121.68Z"/><rect class="cls-9" x="1547.28" y="1405.51" width="34.14" height="89.06" rx="17.07" ry="17.07" transform="translate(1691.17 -679.22) rotate(50.58)"/><rect class="cls-11" x="1565.59" y="1394.28" width="32.18" height="49.08" rx="16.09" ry="16.09"/><path class="cls-9" d="M1395,1411.78h0c.13-8.43,7.5-15.2,16.37-15l43.3.74c8.87.16,16,7.18,15.9,15.61h0c-.13,8.43-7.5,15.2-16.37,15.05l-43.29-.75C1402,1427.23,1394.84,1420.21,1395,1411.78Z"/><path class="cls-11" d="M1451,1419.33h0a13.44,13.44,0,0,1-6.51-17.95l6.13-12.84a13.79,13.79,0,0,1,18.17-6.51h0c6.79,3.15,13.46-2.7,10.25,4l-9.86,26.77A13.8,13.8,0,0,1,1451,1419.33Z"/><rect class="cls-13" x="1563.64" y="1120.6" width="37.7" height="291.15"/><rect class="cls-13" x="1481.87" y="1106.93" width="37.7" height="291.15" transform="translate(354.86 -331.14) rotate(14.26)"/><path class="cls-22" d="M1605,1142.92l-91.4-9.54a11.62,11.62,0,0,1-10.42-11.56V948a36.08,36.08,0,0,1,36.08-36.08h22.43a43.55,43.55,0,0,1,43.55,43.56l12.56,175A11.63,11.63,0,0,1,1605,1142.92Z"/><path class="cls-4" d="M1534,945.52c-.77-20.34-1.3-31.76-1.65-38.15a9.86,9.86,0,0,1,7.34-10.08h0a9.79,9.79,0,0,1,6.51.51l29.55,13a9.88,9.88,0,0,1,3.2,15.83l-25.12,26.6a9.88,9.88,0,0,1-11.41,2.15l-2.78-1.31A9.87,9.87,0,0,1,1534,945.52Z"/><path class="cls-6" d="M1534.71,909.24l1,16.65a14.59,14.59,0,0,0,15.66,13.69h0a14.59,14.59,0,0,0,13.21-17.41L1560,899.41l-25.31,6.82Z"/><path class="cls-23" d="M1304.09,542.45l-.65.23-60.23,20.49,134.52,511.45c40.6,163.15,105.86,298.32,132.47,298.92l.06.24h0c.1-.06.2-.17.3-.24a2.16,2.16,0,0,0,.36,0h0l-.06-.23c22-18.12,18.36-171.82-22.24-335L1367.73,522Z"/><path class="cls-24" d="M1412.2,842.5h0c-18.93,7.35-39.25-5.21-45.16-27.9l-54.69-209.79,68.81-26.71,54.68,209.78C1441.76,810.58,1431.12,835.16,1412.2,842.5Z"/><ellipse class="cls-25" cx="1305.3" cy="543.21" rx="65.79" ry="25.4" transform="matrix(0.93, -0.36, 0.36, 0.93, -107.87, 500.26)"/><polygon class="cls-26" points="1305.17 593.28 1307.18 603.34 1320.13 612.88 1317.06 600.4 1305.17 593.28"/><polygon class="cls-27" points="1328.31 530.9 1280.43 548.16 1260.79 469.24 1308.67 451.98 1328.31 530.9"/><polyline class="cls-28" points="1317.52 602.85 1305.17 593.28 1376.15 567.8 1386.32 576.13"/><ellipse class="cls-29" cx="1304.62" cy="540.53" rx="25.5" ry="12.32" transform="translate(-107.37 518.66) rotate(-21.62)"/><ellipse class="cls-30" cx="1284.75" cy="460.63" rx="25.5" ry="12.32" transform="translate(-79.09 408.51) rotate(-17.54)"/><path class="cls-31" d="M1417.36,840.54h0c-18.92,7.34-39.24-5.21-45.16-27.91l-54.68-209.78,68.8-26.72L1441,785.92C1446.93,808.61,1436.28,833.19,1417.36,840.54Z"/><circle class="cls-11" cx="1539.42" cy="864.47" r="44.77"/><ellipse class="cls-11" cx="1406.73" cy="1055.84" rx="16.64" ry="14.79" transform="translate(-172.87 282.18) rotate(-10.8)"/><path class="cls-21" d="M1531.78,816.68s-33.8,1-30.88,21.46,30.56,6.5,40.63,16.9,15.51,33.31,12.58,51.73c-.42,2.64,6.38,2.5,12.08,1.94A13.35,13.35,0,0,0,1577,901C1586.67,879.78,1609.35,815.87,1531.78,816.68Z"/><path class="cls-32" d="M1411.15,1039.51s110.73-45.88,163.78-93.44a15.83,15.83,0,0,1,23.69,2.9h0a15.83,15.83,0,0,1-2.46,20.58c-22.82,20.82-84.36,66.83-176.31,98.37Z"/><path d="M1501.75,1369.91l14-3.81s-2.74,7-4.87,7.85S1501.75,1369.91,1501.75,1369.91Z"/><path class="cls-33" d="M1481.5,1345.8l41.58-17.44c1.57-20,1.52-45.58-.28-75.08l-74.8,29.07C1459.82,1308.56,1471.27,1330.2,1481.5,1345.8Z"/><ellipse class="cls-11" cx="1353.09" cy="1002.03" rx="16.75" ry="14.88" transform="translate(-163.74 271.18) rotate(-10.8)"/><path class="cls-7" d="M1510.91,1374s-7.08,6,9.17,17.73c0,0,36.41,19.5-14.3,35.1"/><circle class="cls-34" cx="2046.65" cy="543.21" r="193.52"/><circle class="cls-35" cx="537.5" cy="819.69" r="95.54"/><circle class="cls-36" cx="1808.54" cy="2155.46" r="126.55"/></svg>